<svg xmlns="http://www.w3.org/2000/svg" viewBox="0 0 64 64">
  <defs>
    <radialGradient id="g" cx="50%" cy="50%" r="50%">
      <stop offset="0%" stop-color="#9bff69"/>
      <stop offset="55%" stop-color="#2a8f24"/>
      <stop offset="100%" stop-color="#061f08"/>
    </radialGradient>
    <filter id="glow" x="-50%" y="-50%" width="200%" height="200%">
      <feGaussianBlur stdDeviation="4" result="blur"/>
      <feMerge>
        <feMergeNode in="blur"/>
        <feMergeNode in="SourceGraphic"/>
      </feMerge>
    </filter>
  </defs>
  <rect width="64" height="64" fill="#050507"/>
  <circle cx="32" cy="32" r="22" fill="url(#g)" filter="url(#glow)" stroke="#0b1f09" stroke-width="2"/>
  <path d="M24 22 L32 32 L24 42 L28 42 L36 32 L28 22 Z" fill="#071a08"/>
  <path d="M40 22 L32 32 L40 42 L36 42 L28 32 L36 22 Z" fill="#071a08"/>
  <polygon points="14,18 18,14 22,18 18,22" fill="#0b330c"/>
  <polygon points="42,14 46,18 42,22 38,18" fill="#0b330c"/>
  <polygon points="50,46 46,50 42,46 46,42" fill="#0b330c"/>
  <polygon points="18,46 22,50 26,46 22,42" fill="#0b330c"/>
</svg>
